<mxfile host="app.diagrams.net" agent="Mozilla/5.0 (Windows NT 10.0; Win64; x64) AppleWebKit/537.36 (KHTML, like Gecko) Chrome/131.0.0.0 Safari/537.36" version="26.2.12">
  <diagram name="Page-1" id="KxlNXmtEkk6H4z8IVoCy">
    <mxGraphModel dx="2294" dy="1628" grid="0" gridSize="10" guides="1" tooltips="1" connect="1" arrows="1" fold="1" page="0" pageScale="1" pageWidth="850" pageHeight="1100" math="0" shadow="0">
      <root>
        <mxCell id="0" />
        <mxCell id="1" parent="0" />
        <mxCell id="Veihtp9p5LhrNEl_JF6u-2" value="Actor" style="shape=umlActor;verticalLabelPosition=bottom;verticalAlign=top;html=1;outlineConnect=0;" vertex="1" parent="1">
          <mxGeometry x="-831" y="78" width="30" height="60" as="geometry" />
        </mxCell>
        <mxCell id="Veihtp9p5LhrNEl_JF6u-3" value="Boundary Object" style="shape=umlBoundary;whiteSpace=wrap;html=1;" vertex="1" parent="1">
          <mxGeometry x="60" y="-199" width="100" height="80" as="geometry" />
        </mxCell>
        <mxCell id="Veihtp9p5LhrNEl_JF6u-4" value="Entity Object" style="ellipse;shape=umlEntity;whiteSpace=wrap;html=1;" vertex="1" parent="1">
          <mxGeometry x="157" y="72" width="80" height="80" as="geometry" />
        </mxCell>
        <mxCell id="Veihtp9p5LhrNEl_JF6u-23" value="" style="edgeStyle=none;curved=1;rounded=0;orthogonalLoop=1;jettySize=auto;html=1;fontSize=12;startSize=8;endSize=8;" edge="1" parent="1" source="Veihtp9p5LhrNEl_JF6u-5" target="Veihtp9p5LhrNEl_JF6u-21">
          <mxGeometry relative="1" as="geometry" />
        </mxCell>
        <mxCell id="Veihtp9p5LhrNEl_JF6u-5" value="show" style="ellipse;shape=umlControl;whiteSpace=wrap;html=1;" vertex="1" parent="1">
          <mxGeometry x="-469" y="396" width="70" height="80" as="geometry" />
        </mxCell>
        <mxCell id="Veihtp9p5LhrNEl_JF6u-14" value="" style="edgeStyle=none;curved=1;rounded=0;orthogonalLoop=1;jettySize=auto;html=1;fontSize=12;startSize=8;endSize=8;" edge="1" parent="1" source="Veihtp9p5LhrNEl_JF6u-10" target="Veihtp9p5LhrNEl_JF6u-13">
          <mxGeometry relative="1" as="geometry" />
        </mxCell>
        <mxCell id="Veihtp9p5LhrNEl_JF6u-10" value="Main menu" style="shape=umlBoundary;whiteSpace=wrap;html=1;" vertex="1" parent="1">
          <mxGeometry x="-583" y="51" width="100" height="80" as="geometry" />
        </mxCell>
        <mxCell id="Veihtp9p5LhrNEl_JF6u-22" value="" style="edgeStyle=none;curved=1;rounded=0;orthogonalLoop=1;jettySize=auto;html=1;fontSize=12;startSize=8;endSize=8;" edge="1" parent="1" source="Veihtp9p5LhrNEl_JF6u-11" target="Veihtp9p5LhrNEl_JF6u-5">
          <mxGeometry relative="1" as="geometry" />
        </mxCell>
        <mxCell id="Veihtp9p5LhrNEl_JF6u-11" value="My posts" style="shape=umlBoundary;whiteSpace=wrap;html=1;" vertex="1" parent="1">
          <mxGeometry x="-694" y="400" width="100" height="80" as="geometry" />
        </mxCell>
        <mxCell id="Veihtp9p5LhrNEl_JF6u-15" value="" style="edgeStyle=none;curved=1;rounded=0;orthogonalLoop=1;jettySize=auto;html=1;fontSize=12;startSize=8;endSize=8;" edge="1" parent="1" source="Veihtp9p5LhrNEl_JF6u-13" target="Veihtp9p5LhrNEl_JF6u-11">
          <mxGeometry relative="1" as="geometry" />
        </mxCell>
        <mxCell id="Veihtp9p5LhrNEl_JF6u-13" value="Show My Posts" style="ellipse;shape=umlControl;whiteSpace=wrap;html=1;" vertex="1" parent="1">
          <mxGeometry x="-583" y="276" width="70" height="80" as="geometry" />
        </mxCell>
        <mxCell id="Veihtp9p5LhrNEl_JF6u-19" style="edgeStyle=none;curved=1;rounded=0;orthogonalLoop=1;jettySize=auto;html=1;exitX=1;exitY=1;exitDx=0;exitDy=0;exitPerimeter=0;entryX=0.23;entryY=0.382;entryDx=0;entryDy=0;entryPerimeter=0;fontSize=12;startSize=8;endSize=8;" edge="1" parent="1" source="Veihtp9p5LhrNEl_JF6u-2" target="Veihtp9p5LhrNEl_JF6u-11">
          <mxGeometry relative="1" as="geometry" />
        </mxCell>
        <mxCell id="Veihtp9p5LhrNEl_JF6u-20" value="Select Post" style="edgeLabel;html=1;align=center;verticalAlign=middle;resizable=0;points=[];fontSize=12;" vertex="1" connectable="0" parent="Veihtp9p5LhrNEl_JF6u-19">
          <mxGeometry x="-0.3792" relative="1" as="geometry">
            <mxPoint as="offset" />
          </mxGeometry>
        </mxCell>
        <mxCell id="Veihtp9p5LhrNEl_JF6u-29" value="" style="edgeStyle=none;curved=1;rounded=0;orthogonalLoop=1;jettySize=auto;html=1;fontSize=12;startSize=8;endSize=8;" edge="1" parent="1" source="Veihtp9p5LhrNEl_JF6u-21" target="Veihtp9p5LhrNEl_JF6u-28">
          <mxGeometry relative="1" as="geometry" />
        </mxCell>
        <mxCell id="Veihtp9p5LhrNEl_JF6u-21" value="Founder Review Page" style="shape=umlBoundary;whiteSpace=wrap;html=1;" vertex="1" parent="1">
          <mxGeometry x="-210" y="400" width="100" height="80" as="geometry" />
        </mxCell>
        <mxCell id="Veihtp9p5LhrNEl_JF6u-39" value="" style="edgeStyle=none;curved=1;rounded=0;orthogonalLoop=1;jettySize=auto;html=1;fontSize=12;startSize=8;endSize=8;" edge="1" parent="1" source="Veihtp9p5LhrNEl_JF6u-24" target="Veihtp9p5LhrNEl_JF6u-36">
          <mxGeometry relative="1" as="geometry" />
        </mxCell>
        <mxCell id="Veihtp9p5LhrNEl_JF6u-24" value="Database" style="ellipse;shape=umlEntity;whiteSpace=wrap;html=1;" vertex="1" parent="1">
          <mxGeometry x="-10" y="761" width="80" height="80" as="geometry" />
        </mxCell>
        <mxCell id="Veihtp9p5LhrNEl_JF6u-25" style="edgeStyle=none;curved=1;rounded=0;orthogonalLoop=1;jettySize=auto;html=1;exitX=1;exitY=0.3333333333333333;exitDx=0;exitDy=0;exitPerimeter=0;entryX=0.573;entryY=0.052;entryDx=0;entryDy=0;entryPerimeter=0;fontSize=12;startSize=8;endSize=8;" edge="1" parent="1" source="Veihtp9p5LhrNEl_JF6u-2" target="Veihtp9p5LhrNEl_JF6u-21">
          <mxGeometry relative="1" as="geometry" />
        </mxCell>
        <mxCell id="Veihtp9p5LhrNEl_JF6u-26" value="Writes and submits&lt;div&gt;founder review&lt;/div&gt;" style="edgeLabel;html=1;align=center;verticalAlign=middle;resizable=0;points=[];fontSize=12;" vertex="1" connectable="0" parent="Veihtp9p5LhrNEl_JF6u-25">
          <mxGeometry x="-0.6907" y="2" relative="1" as="geometry">
            <mxPoint x="-1" as="offset" />
          </mxGeometry>
        </mxCell>
        <mxCell id="Veihtp9p5LhrNEl_JF6u-32" value="" style="edgeStyle=none;curved=1;rounded=0;orthogonalLoop=1;jettySize=auto;html=1;fontSize=12;startSize=8;endSize=8;" edge="1" parent="1" source="Veihtp9p5LhrNEl_JF6u-28" target="Veihtp9p5LhrNEl_JF6u-31">
          <mxGeometry relative="1" as="geometry" />
        </mxCell>
        <mxCell id="Veihtp9p5LhrNEl_JF6u-45" value="" style="edgeStyle=none;curved=1;rounded=0;orthogonalLoop=1;jettySize=auto;html=1;fontSize=12;startSize=8;endSize=8;fillColor=#f8cecc;strokeColor=#b85450;" edge="1" parent="1" source="Veihtp9p5LhrNEl_JF6u-28" target="Veihtp9p5LhrNEl_JF6u-44">
          <mxGeometry relative="1" as="geometry" />
        </mxCell>
        <mxCell id="Veihtp9p5LhrNEl_JF6u-28" value="Check submission" style="ellipse;shape=umlControl;whiteSpace=wrap;html=1;" vertex="1" parent="1">
          <mxGeometry x="-10" y="404" width="70" height="80" as="geometry" />
        </mxCell>
        <mxCell id="Veihtp9p5LhrNEl_JF6u-34" value="" style="edgeStyle=none;curved=1;rounded=0;orthogonalLoop=1;jettySize=auto;html=1;fontSize=12;startSize=8;endSize=8;" edge="1" parent="1" source="Veihtp9p5LhrNEl_JF6u-31" target="Veihtp9p5LhrNEl_JF6u-24">
          <mxGeometry relative="1" as="geometry" />
        </mxCell>
        <mxCell id="Veihtp9p5LhrNEl_JF6u-31" value="Save Review" style="ellipse;shape=umlControl;whiteSpace=wrap;html=1;" vertex="1" parent="1">
          <mxGeometry x="-10" y="601" width="70" height="80" as="geometry" />
        </mxCell>
        <mxCell id="Veihtp9p5LhrNEl_JF6u-35" value="LOGIN" style="html=1;whiteSpace=wrap;" vertex="1" parent="1">
          <mxGeometry x="-717" y="60" width="110" height="50" as="geometry" />
        </mxCell>
        <mxCell id="Veihtp9p5LhrNEl_JF6u-36" value="Post&lt;div&gt;in Founders Profile&lt;/div&gt;" style="ellipse;shape=umlControl;whiteSpace=wrap;html=1;" vertex="1" parent="1">
          <mxGeometry x="141" y="767" width="70" height="80" as="geometry" />
        </mxCell>
        <mxCell id="Veihtp9p5LhrNEl_JF6u-47" value="" style="edgeStyle=none;curved=1;rounded=0;orthogonalLoop=1;jettySize=auto;html=1;fontSize=12;startSize=8;endSize=8;fillColor=#f8cecc;strokeColor=#b85450;" edge="1" parent="1" source="Veihtp9p5LhrNEl_JF6u-44" target="Veihtp9p5LhrNEl_JF6u-21">
          <mxGeometry relative="1" as="geometry" />
        </mxCell>
        <mxCell id="Veihtp9p5LhrNEl_JF6u-44" value="Invalid Review" style="ellipse;shape=umlControl;whiteSpace=wrap;html=1;fillColor=#f8cecc;strokeColor=#b85450;" vertex="1" parent="1">
          <mxGeometry x="-95" y="251" width="70" height="80" as="geometry" />
        </mxCell>
        <mxCell id="Veihtp9p5LhrNEl_JF6u-48" value="show" style="ellipse;shape=umlControl;whiteSpace=wrap;html=1;" vertex="1" parent="1">
          <mxGeometry x="109" y="-63" width="70" height="80" as="geometry" />
        </mxCell>
      </root>
    </mxGraphModel>
  </diagram>
</mxfile>
